<?xml version="1.0" encoding="UTF-8" standalone="no"?>
<svg xmlns="http://www.w3.org/2000/svg" viewBox="0 0 400 400" width="100%" height="100%">
  <defs>
    <!-- Filter for 3D metallic drop shadow -->
    <filter id="shadow" x="-10%" y="-10%" width="130%" height="130%">
      <feDropShadow dx="0" dy="12" stdDeviation="8" flood-color="#0F172A" flood-opacity="0.6" />
    </filter>
    
    <!-- Gradients by Rarity -->
    <!-- Bronze -->
    <linearGradient id="bronzeGrad" x1="0%" y1="0%" x2="100%" y2="100%">
      <stop offset="0%" stop-color="#E5A97F" />
      <stop offset="50%" stop-color="#CD7F32" />
      <stop offset="100%" stop-color="#8B4513" />
    </linearGradient>
    <linearGradient id="bronzeRimGrad" x1="0%" y1="100%" x2="100%" y2="0%">
      <stop offset="0%" stop-color="#8B4513" />
      <stop offset="30%" stop-color="#CD7F32" />
      <stop offset="70%" stop-color="#E5A97F" />
      <stop offset="100%" stop-color="#CD7F32" />
    </linearGradient>
    
    <!-- Silver -->
    <linearGradient id="silverGrad" x1="0%" y1="0%" x2="100%" y2="100%">
      <stop offset="0%" stop-color="#F8FAFC" />
      <stop offset="50%" stop-color="#94A3B8" />
      <stop offset="100%" stop-color="#475569" />
    </linearGradient>
    <linearGradient id="silverRimGrad" x1="0%" y1="100%" x2="100%" y2="0%">
      <stop offset="0%" stop-color="#475569" />
      <stop offset="30%" stop-color="#94A3B8" />
      <stop offset="70%" stop-color="#F8FAFC" />
      <stop offset="100%" stop-color="#94A3B8" />
    </linearGradient>
    
    <!-- Gold -->
    <linearGradient id="goldGrad" x1="0%" y1="0%" x2="100%" y2="100%">
      <stop offset="0%" stop-color="#FDE047" />
      <stop offset="50%" stop-color="#CA8A04" />
      <stop offset="100%" stop-color="#854D0E" />
    </linearGradient>
    <linearGradient id="goldRimGrad" x1="0%" y1="100%" x2="100%" y2="0%">
      <stop offset="0%" stop-color="#854D0E" />
      <stop offset="30%" stop-color="#FDE047" />
      <stop offset="70%" stop-color="#CA8A04" />
      <stop offset="100%" stop-color="#FEF08A" />
    </linearGradient>
    
    <!-- Platinum -->
    <linearGradient id="platGrad" x1="0%" y1="0%" x2="100%" y2="100%">
      <stop offset="0%" stop-color="#22D3EE" />
      <stop offset="50%" stop-color="#3B82F6" />
      <stop offset="100%" stop-color="#8B5CF6" />
    </linearGradient>
    <linearGradient id="platRimGrad" x1="0%" y1="100%" x2="100%" y2="0%">
      <stop offset="0%" stop-color="#8B5CF6" />
      <stop offset="50%" stop-color="#EC4899" />
      <stop offset="100%" stop-color="#22D3EE" />
    </linearGradient>
    
    <!-- Metallic Inner Ring highlight -->
    <linearGradient id="metalHighlight" x1="0%" y1="0%" x2="0%" y2="100%">
      <stop offset="0%" stop-color="#FFFFFF" stop-opacity="0.3" />
      <stop offset="100%" stop-color="#FFFFFF" stop-opacity="0.0" />
    </linearGradient>

    <!-- Inner backgrounds -->
    <radialGradient id="innerBg" cx="50%" cy="50%" r="50%">
      <stop offset="0%" stop-color="#1E293B" />
      <stop offset="75%" stop-color="#0F172A" />
      <stop offset="100%" stop-color="#020617" />
    </radialGradient>
  </defs>

  <!-- Main Medallion group with shadow -->
  <g filter="url(#shadow)">
    <!-- Base Rarity Wings / Aviation Styling behind badge -->
    

    

    
      <!-- Silver Winged Plates -->
      <path d="M70 200 C40 170 80 140 120 170 Z" fill="url(#silverGrad)" />
      <path d="M330 200 C360 170 320 140 280 170 Z" fill="url(#silverGrad)" />
      <polygon points="200 25 365 100 365 300 200 375 35 300 35 100" fill="none" stroke="url(#silverRimGrad)" stroke-width="3" opacity="0.4" />
    

    

    <!-- Main Outer Rim -->
    <circle cx="200" cy="200" r="135" fill="url(#silverRimGrad)" />

    <!-- Inner Metallic Inset -->
    <circle cx="200" cy="200" r="122" fill="url(#innerBg)" stroke="#FFFFFF" stroke-opacity="0.1" stroke-width="1.5" />

    <!-- Glow/Vibrancy behind Icon -->
    <circle cx="200" cy="200" r="65" fill="url(#silverGrad)" opacity="0.12" />

    <!-- Central Icon Path -->
    <g transform="translate(130, 124) scale(5.8)" stroke="url(#silverGrad)" stroke-width="2" stroke-linecap="round" stroke-linejoin="round" fill="none">
      <path d="M17 21v-2a4 4 0 0 0-4-4H5a4 4 0 0 0-4 4v2"/><circle cx="9" cy="7" r="4"/><path d="M23 21v-2a4 4 0 0 0-3-3.87"/><path d="M16 3.13a4 4 0 0 1 0 7.75"/>
    </g>

    <!-- Outer Rim Rivets / Ornaments -->
    

    

    
      <!-- Silver Rivets -->
      <circle cx="200" cy="80" r="3" fill="#E2E8F0" />
      <circle cx="200" cy="320" r="3" fill="#E2E8F0" />
      <circle cx="80" cy="200" r="3" fill="#E2E8F0" />
      <circle cx="320" cy="200" r="3" fill="#E2E8F0" />
      <circle cx="115" cy="115" r="3" fill="#E2E8F0" />
      <circle cx="285" cy="115" r="3" fill="#E2E8F0" />
      <circle cx="115" cy="285" r="3" fill="#E2E8F0" />
      <circle cx="285" cy="285" r="3" fill="#E2E8F0" />
    

    

    <!-- Shiny Glass Reflection Overlay -->
    <path d="M78 150 C140 100 260 100 322 150 C290 85 110 85 78 150 Z" fill="url(#metalHighlight)" opacity="0.6" />
    
    <!-- Text Curved Path or centered small name -->
    <rect x="130" y="278" width="140" height="24" rx="12" fill="#020617" fill-opacity="0.85" stroke="#C0C0C0" stroke-opacity="0.3" stroke-width="1" />
    <text x="200" y="294" font-family="'Plus Jakarta Sans', system-ui, -apple-system, sans-serif" font-size="10" font-weight="900" fill="#F8FAFC" text-anchor="middle" letter-spacing="1.5">PILOTO DE CABINE</text>
  </g>
</svg>